<?xml version='1.0' encoding='UTF-8'?>
<svg width="35mm" height="35mm" version="1.1" viewBox="0 0 35 35" xmlns="http://www.w3.org/2000/svg"><rect fill="white" x="0" y="0" width="100%" height="100%" /><path d="M3,3H4V4H3zM4,3H5V4H4zM5,3H6V4H5zM6,3H7V4H6zM7,3H8V4H7zM8,3H9V4H8zM9,3H10V4H9zM11,3H12V4H11zM16,3H17V4H16zM22,3H23V4H22zM23,3H24V4H23zM25,3H26V4H25zM26,3H27V4H26zM27,3H28V4H27zM28,3H29V4H28zM29,3H30V4H29zM30,3H31V4H30zM31,3H32V4H31zM3,4H4V5H3zM9,4H10V5H9zM11,4H12V5H11zM12,4H13V5H12zM16,4H17V5H16zM25,4H26V5H25zM31,4H32V5H31zM3,5H4V6H3zM5,5H6V6H5zM6,5H7V6H6zM7,5H8V6H7zM9,5H10V6H9zM16,5H17V6H16zM17,5H18V6H17zM19,5H20V6H19zM22,5H23V6H22zM25,5H26V6H25zM27,5H28V6H27zM28,5H29V6H28zM29,5H30V6H29zM31,5H32V6H31zM3,6H4V7H3zM5,6H6V7H5zM6,6H7V7H6zM7,6H8V7H7zM9,6H10V7H9zM11,6H12V7H11zM12,6H13V7H12zM18,6H19V7H18zM19,6H20V7H19zM20,6H21V7H20zM25,6H26V7H25zM27,6H28V7H27zM28,6H29V7H28zM29,6H30V7H29zM31,6H32V7H31zM3,7H4V8H3zM5,7H6V8H5zM6,7H7V8H6zM7,7H8V8H7zM9,7H10V8H9zM12,7H13V8H12zM14,7H15V8H14zM15,7H16V8H15zM16,7H17V8H16zM17,7H18V8H17zM18,7H19V8H18zM19,7H20V8H19zM21,7H22V8H21zM22,7H23V8H22zM25,7H26V8H25zM27,7H28V8H27zM28,7H29V8H28zM29,7H30V8H29zM31,7H32V8H31zM3,8H4V9H3zM9,8H10V9H9zM13,8H14V9H13zM17,8H18V9H17zM19,8H20V9H19zM22,8H23V9H22zM25,8H26V9H25zM31,8H32V9H31zM3,9H4V10H3zM4,9H5V10H4zM5,9H6V10H5zM6,9H7V10H6zM7,9H8V10H7zM8,9H9V10H8zM9,9H10V10H9zM11,9H12V10H11zM13,9H14V10H13zM15,9H16V10H15zM17,9H18V10H17zM19,9H20V10H19zM21,9H22V10H21zM23,9H24V10H23zM25,9H26V10H25zM26,9H27V10H26zM27,9H28V10H27zM28,9H29V10H28zM29,9H30V10H29zM30,9H31V10H30zM31,9H32V10H31zM11,10H12V11H11zM13,10H14V11H13zM15,10H16V11H15zM16,10H17V11H16zM17,10H18V11H17zM20,10H21V11H20zM21,10H22V11H21zM22,10H23V11H22zM23,10H24V11H23zM3,11H4V12H3zM5,11H6V12H5zM6,11H7V12H6zM8,11H9V12H8zM9,11H10V12H9zM10,11H11V12H10zM12,11H13V12H12zM14,11H15V12H14zM15,11H16V12H15zM16,11H17V12H16zM17,11H18V12H17zM20,11H21V12H20zM22,11H23V12H22zM23,11H24V12H23zM25,11H26V12H25zM28,11H29V12H28zM30,11H31V12H30zM31,11H32V12H31zM12,12H13V13H12zM13,12H14V13H13zM14,12H15V13H14zM19,12H20V13H19zM20,12H21V13H20zM21,12H22V13H21zM22,12H23V13H22zM23,12H24V13H23zM25,12H26V13H25zM26,12H27V13H26zM27,12H28V13H27zM31,12H32V13H31zM3,13H4V14H3zM4,13H5V14H4zM6,13H7V14H6zM7,13H8V14H7zM9,13H10V14H9zM11,13H12V14H11zM13,13H14V14H13zM14,13H15V14H14zM17,13H18V14H17zM19,13H20V14H19zM21,13H22V14H21zM23,13H24V14H23zM24,13H25V14H24zM26,13H27V14H26zM29,13H30V14H29zM30,13H31V14H30zM3,14H4V15H3zM4,14H5V15H4zM5,14H6V15H5zM7,14H8V15H7zM10,14H11V15H10zM14,14H15V15H14zM15,14H16V15H15zM16,14H17V15H16zM17,14H18V15H17zM19,14H20V15H19zM24,14H25V15H24zM25,14H26V15H25zM26,14H27V15H26zM31,14H32V15H31zM4,15H5V16H4zM9,15H10V16H9zM11,15H12V16H11zM14,15H15V16H14zM15,15H16V16H15zM18,15H19V16H18zM20,15H21V16H20zM26,15H27V16H26zM28,15H29V16H28zM29,15H30V16H29zM3,16H4V17H3zM4,16H5V17H4zM6,16H7V17H6zM7,16H8V17H7zM10,16H11V17H10zM16,16H17V17H16zM18,16H19V17H18zM19,16H20V17H19zM22,16H23V17H22zM24,16H25V17H24zM25,16H26V17H25zM29,16H30V17H29zM30,16H31V17H30zM31,16H32V17H31zM4,17H5V18H4zM5,17H6V18H5zM6,17H7V18H6zM7,17H8V18H7zM8,17H9V18H8zM9,17H10V18H9zM10,17H11V18H10zM11,17H12V18H11zM12,17H13V18H12zM14,17H15V18H14zM17,17H18V18H17zM19,17H20V18H19zM20,17H21V18H20zM21,17H22V18H21zM22,17H23V18H22zM23,17H24V18H23zM25,17H26V18H25zM26,17H27V18H26zM27,17H28V18H27zM29,17H30V18H29zM30,17H31V18H30zM31,17H32V18H31zM5,18H6V19H5zM6,18H7V19H6zM7,18H8V19H7zM13,18H14V19H13zM16,18H17V19H16zM19,18H20V19H19zM21,18H22V19H21zM24,18H25V19H24zM25,18H26V19H25zM27,18H28V19H27zM30,18H31V19H30zM3,19H4V20H3zM9,19H10V20H9zM10,19H11V20H10zM14,19H15V20H14zM15,19H16V20H15zM18,19H19V20H18zM21,19H22V20H21zM22,19H23V20H22zM23,19H24V20H23zM24,19H25V20H24zM26,19H27V20H26zM27,19H28V20H27zM28,19H29V20H28zM30,19H31V20H30zM4,20H5V21H4zM6,20H7V21H6zM8,20H9V21H8zM11,20H12V21H11zM12,20H13V21H12zM13,20H14V21H13zM16,20H17V21H16zM18,20H19V21H18zM19,20H20V21H19zM23,20H24V21H23zM26,20H27V21H26zM28,20H29V21H28zM29,20H30V21H29zM30,20H31V21H30zM3,21H4V22H3zM6,21H7V22H6zM7,21H8V22H7zM8,21H9V22H8zM9,21H10V22H9zM10,21H11V22H10zM12,21H13V22H12zM13,21H14V22H13zM15,21H16V22H15zM18,21H19V22H18zM19,21H20V22H19zM25,21H26V22H25zM26,21H27V22H26zM29,21H30V22H29zM6,22H7V23H6zM7,22H8V23H7zM11,22H12V23H11zM12,22H13V23H12zM15,22H16V23H15zM20,22H21V23H20zM21,22H22V23H21zM25,22H26V23H25zM27,22H28V23H27zM29,22H30V23H29zM4,23H5V24H4zM5,23H6V24H5zM9,23H10V24H9zM10,23H11V24H10zM12,23H13V24H12zM13,23H14V24H13zM14,23H15V24H14zM16,23H17V24H16zM18,23H19V24H18zM20,23H21V24H20zM21,23H22V24H21zM23,23H24V24H23zM24,23H25V24H24zM25,23H26V24H25zM26,23H27V24H26zM27,23H28V24H27zM28,23H29V24H28zM29,23H30V24H29zM11,24H12V25H11zM12,24H13V25H12zM13,24H14V25H13zM15,24H16V25H15zM16,24H17V25H16zM17,24H18V25H17zM19,24H20V25H19zM23,24H24V25H23zM27,24H28V25H27zM28,24H29V25H28zM29,24H30V25H29zM30,24H31V25H30zM31,24H32V25H31zM3,25H4V26H3zM4,25H5V26H4zM5,25H6V26H5zM6,25H7V26H6zM7,25H8V26H7zM8,25H9V26H8zM9,25H10V26H9zM11,25H12V26H11zM13,25H14V26H13zM16,25H17V26H16zM20,25H21V26H20zM21,25H22V26H21zM22,25H23V26H22zM23,25H24V26H23zM25,25H26V26H25zM27,25H28V26H27zM28,25H29V26H28zM30,25H31V26H30zM3,26H4V27H3zM9,26H10V27H9zM11,26H12V27H11zM12,26H13V27H12zM13,26H14V27H13zM15,26H16V27H15zM18,26H19V27H18zM23,26H24V27H23zM27,26H28V27H27zM28,26H29V27H28zM30,26H31V27H30zM31,26H32V27H31zM3,27H4V28H3zM5,27H6V28H5zM6,27H7V28H6zM7,27H8V28H7zM9,27H10V28H9zM12,27H13V28H12zM17,27H18V28H17zM18,27H19V28H18zM20,27H21V28H20zM23,27H24V28H23zM24,27H25V28H24zM25,27H26V28H25zM26,27H27V28H26zM27,27H28V28H27zM29,27H30V28H29zM3,28H4V29H3zM5,28H6V29H5zM6,28H7V29H6zM7,28H8V29H7zM9,28H10V29H9zM11,28H12V29H11zM12,28H13V29H12zM13,28H14V29H13zM14,28H15V29H14zM15,28H16V29H15zM16,28H17V29H16zM17,28H18V29H17zM18,28H19V29H18zM19,28H20V29H19zM22,28H23V29H22zM23,28H24V29H23zM24,28H25V29H24zM26,28H27V29H26zM27,28H28V29H27zM28,28H29V29H28zM31,28H32V29H31zM3,29H4V30H3zM5,29H6V30H5zM6,29H7V30H6zM7,29H8V30H7zM9,29H10V30H9zM11,29H12V30H11zM13,29H14V30H13zM14,29H15V30H14zM15,29H16V30H15zM16,29H17V30H16zM21,29H22V30H21zM23,29H24V30H23zM26,29H27V30H26zM29,29H30V30H29zM31,29H32V30H31zM3,30H4V31H3zM9,30H10V31H9zM14,30H15V31H14zM18,30H19V31H18zM21,30H22V31H21zM23,30H24V31H23zM28,30H29V31H28zM30,30H31V31H30zM3,31H4V32H3zM4,31H5V32H4zM5,31H6V32H5zM6,31H7V32H6zM7,31H8V32H7zM8,31H9V32H8zM9,31H10V32H9zM11,31H12V32H11zM12,31H13V32H12zM14,31H15V32H14zM18,31H19V32H18zM21,31H22V32H21zM23,31H24V32H23zM24,31H25V32H24zM27,31H28V32H27zM30,31H31V32H30z" id="qr-path" fill="#000000" fill-opacity="1" fill-rule="nonzero" stroke="none" /></svg>